<svg id="visual" viewBox="0 0 900 100" width="900" height="100" xmlns="http://www.w3.org/2000/svg" xmlns:xlink="http://www.w3.org/1999/xlink" version="1.1"><path d="M0 29L6.5 27C13 25 26 21 39 18C52 15 65 13 78 12.5C91 12 104 13 117.2 15.2C130.3 17.3 143.7 20.7 156.8 20C170 19.3 183 14.7 196 12.7C209 10.7 222 11.3 235 11.8C248 12.3 261 12.7 274 12.5C287 12.3 300 11.7 313 11.8C326 12 339 13 352 14.2C365 15.3 378 16.7 391 17.2C404 17.7 417 17.3 430.2 17.5C443.3 17.7 456.7 18.3 469.8 19.7C483 21 496 23 509 23.2C522 23.3 535 21.7 548 21.5C561 21.3 574 22.7 587 22.3C600 22 613 20 626 19.8C639 19.7 652 21.3 665 21.3C678 21.3 691 19.7 704 19.7C717 19.7 730 21.3 743.2 22.3C756.3 23.3 769.7 23.7 782.8 22.5C796 21.3 809 18.7 822 17C835 15.3 848 14.7 861 16C874 17.3 887 20.7 893.5 22.3L900 24L900 0L893.5 0C887 0 874 0 861 0C848 0 835 0 822 0C809 0 796 0 782.8 0C769.7 0 756.3 0 743.2 0C730 0 717 0 704 0C691 0 678 0 665 0C652 0 639 0 626 0C613 0 600 0 587 0C574 0 561 0 548 0C535 0 522 0 509 0C496 0 483 0 469.8 0C456.7 0 443.3 0 430.2 0C417 0 404 0 391 0C378 0 365 0 352 0C339 0 326 0 313 0C300 0 287 0 274 0C261 0 248 0 235 0C222 0 209 0 196 0C183 0 170 0 156.8 0C143.7 0 130.3 0 117.2 0C104 0 91 0 78 0C65 0 52 0 39 0C26 0 13 0 6.5 0L0 0Z" fill="#525050"></path><path d="M0 42L6.5 41.3C13 40.7 26 39.3 39 37C52 34.7 65 31.3 78 30.3C91 29.3 104 30.7 117.2 32.3C130.3 34 143.7 36 156.8 34.7C170 33.3 183 28.7 196 25.8C209 23 222 22 235 22.8C248 23.7 261 26.3 274 26.2C287 26 300 23 313 23.5C326 24 339 28 352 29.5C365 31 378 30 391 30.5C404 31 417 33 430.2 33.5C443.3 34 456.7 33 469.8 34.5C483 36 496 40 509 39.3C522 38.7 535 33.3 548 33.2C561 33 574 38 587 38.3C600 38.7 613 34.3 626 33.5C639 32.7 652 35.3 665 35.2C678 35 691 32 704 31.5C717 31 730 33 743.2 35.2C756.3 37.3 769.7 39.7 782.8 39.2C796 38.7 809 35.3 822 33C835 30.7 848 29.3 861 31.2C874 33 887 38 893.5 40.5L900 43L900 22L893.5 20.3C887 18.7 874 15.3 861 14C848 12.7 835 13.3 822 15C809 16.7 796 19.3 782.8 20.5C769.7 21.7 756.3 21.3 743.2 20.3C730 19.3 717 17.7 704 17.7C691 17.7 678 19.3 665 19.3C652 19.3 639 17.7 626 17.8C613 18 600 20 587 20.3C574 20.7 561 19.3 548 19.5C535 19.7 522 21.3 509 21.2C496 21 483 19 469.8 17.7C456.7 16.3 443.3 15.7 430.2 15.5C417 15.3 404 15.7 391 15.2C378 14.7 365 13.3 352 12.2C339 11 326 10 313 9.8C300 9.7 287 10.3 274 10.5C261 10.7 248 10.3 235 9.8C222 9.3 209 8.7 196 10.7C183 12.7 170 17.3 156.8 18C143.7 18.7 130.3 15.3 117.2 13.2C104 11 91 10 78 10.5C65 11 52 13 39 16C26 19 13 23 6.5 25L0 27Z" fill="#403e3e"></path><path d="M0 79L6.5 76.5C13 74 26 69 39 63.8C52 58.7 65 53.3 78 50.8C91 48.3 104 48.7 117.2 50.8C130.3 53 143.7 57 156.8 56.3C170 55.7 183 50.3 196 51C209 51.7 222 58.3 235 59.5C248 60.7 261 56.3 274 56.7C287 57 300 62 313 62.8C326 63.7 339 60.3 352 57.2C365 54 378 51 391 50C404 49 417 50 430.2 53.5C443.3 57 456.7 63 469.8 64.3C483 65.7 496 62.3 509 62.8C522 63.3 535 67.7 548 68.7C561 69.7 574 67.3 587 66.5C600 65.7 613 66.3 626 65.8C639 65.3 652 63.7 665 60.2C678 56.7 691 51.3 704 49.5C717 47.7 730 49.3 743.2 54.7C756.3 60 769.7 69 782.8 69.2C796 69.3 809 60.7 822 59.2C835 57.7 848 63.3 861 64.5C874 65.7 887 62.3 893.5 60.7L900 59L900 41L893.5 38.5C887 36 874 31 861 29.2C848 27.3 835 28.7 822 31C809 33.3 796 36.7 782.8 37.2C769.7 37.7 756.3 35.3 743.2 33.2C730 31 717 29 704 29.5C691 30 678 33 665 33.2C652 33.3 639 30.7 626 31.5C613 32.3 600 36.7 587 36.3C574 36 561 31 548 31.2C535 31.3 522 36.7 509 37.3C496 38 483 34 469.8 32.5C456.7 31 443.3 32 430.2 31.5C417 31 404 29 391 28.5C378 28 365 29 352 27.5C339 26 326 22 313 21.5C300 21 287 24 274 24.2C261 24.3 248 21.7 235 20.8C222 20 209 21 196 23.8C183 26.7 170 31.3 156.8 32.7C143.7 34 130.3 32 117.2 30.3C104 28.7 91 27.3 78 28.3C65 29.3 52 32.7 39 35C26 37.3 13 38.7 6.5 39.3L0 40Z" fill="#2e2d2d"></path><path d="M0 87L6.5 84.5C13 82 26 77 39 71.5C52 66 65 60 78 57.8C91 55.7 104 57.3 117.2 60.8C130.3 64.3 143.7 69.7 156.8 68.5C170 67.3 183 59.7 196 60.8C209 62 222 72 235 74.8C248 77.7 261 73.3 274 73C287 72.7 300 76.3 313 77C326 77.7 339 75.3 352 72.2C365 69 378 65 391 63.8C404 62.7 417 64.3 430.2 68.3C443.3 72.3 456.7 78.7 469.8 79.8C483 81 496 77 509 77.2C522 77.3 535 81.7 548 82.7C561 83.7 574 81.3 587 79.8C600 78.3 613 77.7 626 76.7C639 75.7 652 74.3 665 71.8C678 69.3 691 65.7 704 64.2C717 62.7 730 63.3 743.2 67.7C756.3 72 769.7 80 782.8 80.5C796 81 809 74 822 72.5C835 71 848 75 861 76C874 77 887 75 893.5 74L900 73L900 57L893.5 58.7C887 60.3 874 63.7 861 62.5C848 61.3 835 55.7 822 57.2C809 58.7 796 67.3 782.8 67.2C769.7 67 756.3 58 743.2 52.7C730 47.3 717 45.7 704 47.5C691 49.3 678 54.7 665 58.2C652 61.7 639 63.3 626 63.8C613 64.3 600 63.7 587 64.5C574 65.3 561 67.7 548 66.7C535 65.7 522 61.3 509 60.8C496 60.3 483 63.7 469.8 62.3C456.7 61 443.3 55 430.2 51.5C417 48 404 47 391 48C378 49 365 52 352 55.2C339 58.3 326 61.7 313 60.8C300 60 287 55 274 54.7C261 54.3 248 58.7 235 57.5C222 56.3 209 49.7 196 49C183 48.3 170 53.7 156.8 54.3C143.7 55 130.3 51 117.2 48.8C104 46.7 91 46.3 78 48.8C65 51.3 52 56.7 39 61.8C26 67 13 72 6.5 74.5L0 77Z" fill="#282727"></path><path d="M0 101L6.5 101C13 101 26 101 39 101C52 101 65 101 78 101C91 101 104 101 117.2 101C130.3 101 143.7 101 156.8 101C170 101 183 101 196 101C209 101 222 101 235 101C248 101 261 101 274 101C287 101 300 101 313 101C326 101 339 101 352 101C365 101 378 101 391 101C404 101 417 101 430.2 101C443.3 101 456.7 101 469.8 101C483 101 496 101 509 101C522 101 535 101 548 101C561 101 574 101 587 101C600 101 613 101 626 101C639 101 652 101 665 101C678 101 691 101 704 101C717 101 730 101 743.2 101C756.3 101 769.7 101 782.8 101C796 101 809 101 822 101C835 101 848 101 861 101C874 101 887 101 893.5 101L900 101L900 71L893.5 72C887 73 874 75 861 74C848 73 835 69 822 70.5C809 72 796 79 782.8 78.5C769.7 78 756.3 70 743.2 65.7C730 61.3 717 60.7 704 62.2C691 63.7 678 67.3 665 69.8C652 72.3 639 73.7 626 74.7C613 75.7 600 76.3 587 77.8C574 79.3 561 81.7 548 80.7C535 79.7 522 75.3 509 75.2C496 75 483 79 469.8 77.8C456.7 76.7 443.3 70.3 430.2 66.3C417 62.3 404 60.7 391 61.8C378 63 365 67 352 70.2C339 73.3 326 75.7 313 75C300 74.3 287 70.7 274 71C261 71.3 248 75.7 235 72.8C222 70 209 60 196 58.8C183 57.7 170 65.3 156.8 66.5C143.7 67.7 130.3 62.3 117.2 58.8C104 55.3 91 53.7 78 55.8C65 58 52 64 39 69.5C26 75 13 80 6.5 82.5L0 85Z" fill="#232222"></path></svg>